<svg width="20" height="20" viewBox="0 0 20 20" fill="none" xmlns="http://www.w3.org/2000/svg">
<path d="M18.98 1.02001C18.11 0.150012 16.88 -0.189988 15.69 0.110012L5.88998 2.56001C4.23998 2.97001 2.96998 4.25001 2.55998 5.89001L0.109981 15.7C-0.190019 16.89 0.149981 18.12 1.01998 18.99C1.67998 19.64 2.54998 20 3.44998 20C3.72998 20 4.01998 19.97 4.29998 19.89L14.11 17.44C15.75 17.03 17.03 15.76 17.44 14.11L19.89 4.30001C20.19 3.11001 19.85 1.88001 18.98 1.02001ZM9.99998 13.88C7.85998 13.88 6.11998 12.14 6.11998 10C6.11998 7.86001 7.85998 6.12001 9.99998 6.12001C12.14 6.12001 13.88 7.86001 13.88 10C13.88 12.14 12.14 13.88 9.99998 13.88Z" fill="#413F44"/>
</svg>
